<svg width="7" height="12" viewBox="0 0 7 12" fill="none" xmlns="http://www.w3.org/2000/svg">
<path d="M4.175 5.575L0.275001 9.475C0.0916671 9.65833 0 9.89167 0 10.175C0 10.4583 0.0916671 10.6917 0.275001 10.875C0.458334 11.0583 0.691667 11.15 0.975 11.15C1.25833 11.15 1.49167 11.0583 1.675 10.875L6.275 6.275C6.375 6.175 6.44567 6.06667 6.487 5.95C6.52833 5.83333 6.54933 5.70833 6.55 5.575C6.55 5.44167 6.529 5.31667 6.487 5.2C6.445 5.08333 6.37433 4.975 6.275 4.875L1.675 0.275C1.49167 0.0916663 1.25833 0 0.975 0C0.691667 0 0.458334 0.0916663 0.275001 0.275C0.0916671 0.458333 0 0.691667 0 0.975C0 1.25833 0.0916671 1.49167 0.275001 1.675L4.175 5.575Z" fill="black"/>
</svg>
